<svg data-name="Layer 1" xmlns="http://www.w3.org/2000/svg" xmlns:xlink="http://www.w3.org/1999/xlink" width="877" height="551.99" viewBox="0 0 877 551.99"><defs><linearGradient id="b" x1="441.05" y1="161.23" x2="441.05" gradientUnits="userSpaceOnUse"><stop offset="0" stop-color="gray" stop-opacity=".25"/><stop offset=".54" stop-color="gray" stop-opacity=".12"/><stop offset="1" stop-color="gray" stop-opacity=".1"/></linearGradient><linearGradient id="c" x1="898" y1="321.04" x2="898" y2="200.75" gradientUnits="userSpaceOnUse"><stop offset="0" stop-color="#b3b3b3" stop-opacity=".25"/><stop offset=".54" stop-color="#b3b3b3" stop-opacity=".1"/><stop offset="1" stop-color="#b3b3b3" stop-opacity=".05"/></linearGradient><linearGradient id="a" x1="860.83" y1="243.65" x2="860.83" y2="237.86" gradientUnits="userSpaceOnUse"><stop offset="0" stop-opacity=".12"/><stop offset=".55" stop-opacity=".09"/><stop offset="1" stop-opacity=".02"/></linearGradient><linearGradient id="d" x1="887.42" y1="237" x2="887.42" y2="219.3" xlink:href="#a"/><linearGradient id="e" x1="435.32" y1="551.99" x2="435.32" y2="214.38" xlink:href="#b"/></defs><path fill="url(#b)" d="M5.09 0H877v161.23H5.09z"/><path fill="#fff" d="M10.18 5.28h860.45v147.38H10.18z"/><path fill="#f5f5f5" d="M63.03 35.36h500.19v87.71H63.03z"/><path d="M918.76 215a46.32 46.32 0 10-7.58 70.55l33.48 34.83a2.25 2.25 0 003.19.06l8.34-8a2.25 2.25 0 00.06-3.19l-33.48-34.83a46.32 46.32 0 00-4.01-59.42zm-10.43 56a33.13 33.13 0 11.92-46.85 33.13 33.13 0 01-.92 46.8z" transform="translate(-161.5 -174)" fill="url(#c)"/><path d="M860.83 237.86c-3.73 0-3.73 5.79 0 5.79s3.73-5.79 0-5.79z" transform="translate(-161.5 -174)" fill="url(#a)"/><path d="M886.8 219.31a27.83 27.83 0 00-24 12.4c-1.58 2.48 2.91 4.67 4.49 2.2 4-6.29 11.65-10.28 19.9-10.07a25.36 25.36 0 0120.69 12c1.58 2.61 5.73.24 4.15-2.35-5.03-8.3-14.87-13.95-25.23-14.18z" transform="translate(-161.5 -174)" fill="url(#d)"/><path d="M757.26 35.87a46.32 46.32 0 10-7.58 70.55l33.48 34.83a2.25 2.25 0 003.19.06l8.34-8a2.25 2.25 0 00.06-3.19l-33.48-34.83a46.32 46.32 0 00-4.01-59.42zm-10.43 56a33.13 33.13 0 11.92-46.85 33.13 33.13 0 01-.92 46.84z" fill="#00a9f4"/><path d="M699.33 58.76c-3.73 0-3.73 5.79 0 5.79s3.73-5.79 0-5.79zm25.97-18.54a27.83 27.83 0 00-24 12.4c-1.58 2.48 2.91 4.67 4.49 2.2 4-6.29 11.65-10.28 19.9-10.07a25.36 25.36 0 0120.69 12c1.58 2.61 5.73.24 4.15-2.35-5.03-8.3-14.87-13.95-25.23-14.18z" fill="#00a9f4"/><path fill="url(#e)" d="M0 214.38h870.64V552H0z"/><path fill="#fff" d="M10.18 222.62h850.03V541.2H10.18z"/><circle cx="121.09" cy="381.17" r="71.46" fill="#00a9f4"/><path fill="#bdbdbd" d="M244.65 324.6h297.73v35.73H244.65z"/><path fill="#e0e0e0" d="M244.65 397.54h297.73v35.73H244.65z"/><path fill="#00a9f4" d="M580.34 222.62H861.7V541.2H580.34z"/></svg>